<?xml version="1.0" encoding="UTF-8"?>
<svg version="1.1" xmlns="http://www.w3.org/2000/svg" width="388" height="177">
<path d="M0 0 C14.23748862 0.6953343 28.42435985 1.91849555 42.62329102 3.15673828 C45.2654341 3.38697399 47.90763569 3.6161825 50.55004883 3.84326172 C54.40982192 4.17500373 58.26939672 4.5089569 62.12890625 4.84375 C63.88999474 4.99535583 63.88999474 4.99535583 65.68666077 5.15002441 C71.47645964 5.65688988 77.23923228 6.2289048 83 7 C83.50478485 9.41575607 84.00397642 11.83244361 84.5 14.25 C84.64308594 14.93191406 84.78617187 15.61382812 84.93359375 16.31640625 C85.61251049 19.64633121 86 22.58332551 86 26 C83.36 26 80.72 26 78 26 C76.72555405 22.34658827 75.71840092 18.79911118 75 15 C53.68225695 12.8071164 32.35100179 10.83870082 11 9 C11.83117944 15.5627745 12.6651412 22.12519261 13.5 28.6875 C13.62916809 29.70399628 13.75833618 30.72049255 13.89141846 31.76779175 C15.52922714 44.64651479 17.1938315 57.5213879 18.90103912 70.39108086 C19.17858893 72.48390391 19.45566798 74.57678877 19.73260498 76.66969299 C19.91612579 78.05624547 20.09965847 79.44279638 20.28320312 80.8293457 C20.37359989 81.51223947 20.46399666 82.19513323 20.55713272 82.89872074 C21.09914978 86.9900451 21.64484208 91.08086063 22.19299126 95.17136765 C22.61859852 98.35473799 23.03930067 101.53875797 23.4609375 104.72265625 C23.61690399 105.87696136 23.77287048 107.03126648 23.93356323 108.22055054 C24.07456451 109.29124786 24.2155658 110.36194519 24.36083984 111.46508789 C24.48486176 112.39366104 24.60888367 113.32223419 24.73666382 114.27894592 C25.01681643 117.1737643 25 120.09165702 25 123 C49.09 123 73.18 123 98 123 C98 125.31 98 127.62 98 130 C87.58657075 130.02312359 77.17314756 130.04091517 66.75969791 130.05181217 C61.92483173 130.05704097 57.08998306 130.06413854 52.25512695 130.07543945 C47.5932288 130.08626847 42.93134754 130.09227686 38.26943779 130.09487724 C36.48675712 130.09673147 34.70407741 130.10035203 32.92140388 130.10573006 C30.4333404 130.11294069 27.94534757 130.11399093 25.45727539 130.11352539 C24.71281158 130.11712067 23.96834778 130.12071594 23.20132446 130.12442017 C18.11405216 130.11405216 18.11405216 130.11405216 17 129 C16.74290006 127.66478872 16.54337028 126.31840998 16.36843872 124.9699707 C16.25360138 124.10126343 16.13876404 123.23255615 16.02044678 122.33752441 C15.83654388 120.89621155 15.83654388 120.89621155 15.64892578 119.42578125 C15.51704865 118.41906372 15.38517151 117.41234619 15.2492981 116.37512207 C14.9620498 114.17803149 14.67678282 111.98068121 14.39322281 109.78311157 C13.94257986 106.29132625 13.4867367 102.80025515 13.0295105 99.30932617 C12.056594 91.87349902 11.09045974 84.43679845 10.125 77 C9.01267551 68.43457211 7.89751336 59.86952884 6.7762413 51.30526733 C6.3305817 47.89117003 5.88955042 44.47649654 5.44876099 41.06176758 C4.06824189 30.46019842 2.57063151 19.93063247 0.53952026 9.43237305 C0.03432962 6.21840155 -0.10314067 3.24595034 0 0 Z " fill="#464646" transform="translate(148,31)"/>
<path d="M0 0 C2.81256281 -0.02684312 5.62487241 -0.04676188 8.4375 -0.0625 C9.23994141 -0.07087891 10.04238281 -0.07925781 10.86914062 -0.08789062 C12.91295221 -0.0965143 14.95683902 -0.0522815 17 0 C18.66613431 1.66613431 18.44450009 3.80523519 18.71875 6.09375 C18.84636719 7.12371094 18.97398437 8.15367188 19.10546875 9.21484375 C19.36848958 11.40494792 19.63151042 13.59505208 19.89453125 15.78515625 C20.02214844 16.81511719 20.14976562 17.84507813 20.28125 18.90625 C20.45237305 20.33420898 20.45237305 20.33420898 20.62695312 21.79101562 C20.7752315 23.96839397 20.7752315 23.96839397 22 25 C22.39860206 27.37867056 22.74002 29.74328265 23.04736328 32.13427734 C23.14665131 32.88062943 23.24593933 33.62698151 23.34823608 34.39595032 C23.67674327 36.8753785 23.99881467 39.35559135 24.3203125 41.8359375 C24.54530309 43.55370378 24.77047423 45.27144642 24.99581909 46.98916626 C25.4677774 50.59526414 25.93635727 54.20178261 26.40283203 57.80859375 C27.00170377 62.43567558 27.61067777 67.06136379 28.22242928 71.68675804 C28.69040392 75.23598589 29.15210378 78.78600889 29.6119957 82.33629227 C29.83392772 84.04224306 30.05803606 85.74791217 30.28433609 87.45328903 C30.59988012 89.83704641 30.90675495 92.22176559 31.21142578 94.60693359 C31.3069574 95.31458359 31.40248901 96.02223358 31.50091553 96.75132751 C31.89877844 99.93420616 32.03013006 101.90960981 31 105 C29 104 29 104 27.99438477 101.07592773 C27.63546298 99.78065411 27.28508575 98.48299477 26.94140625 97.18359375 C26.75158676 96.49370865 26.56176727 95.80382355 26.36619568 95.09303284 C25.75741367 92.87650403 25.1593274 90.6572749 24.5625 88.4375 C23.96781941 86.24315038 23.37077603 84.04950508 22.76951599 81.85694885 C22.39577556 80.49230849 22.02592557 79.12659403 21.66078186 77.7596283 C20.5950104 73.84781988 19.27538492 70.10896943 17.82341003 66.3273468 C16.01661639 61.22049208 14.6738094 55.9637372 13.2421875 50.7421875 C12.8936673 49.48036652 12.54514709 48.21854553 12.18606567 46.91848755 C11.45257859 44.26156782 10.72166828 41.60395712 9.99267578 38.94580078 C9.06146319 35.55093331 8.12422747 32.15776403 7.18511772 28.76507378 C6.28441548 25.50828533 5.38848059 22.25019219 4.4921875 18.9921875 C3.98907547 17.17326492 3.98907547 17.17326492 3.47579956 15.31759644 C3.16522614 14.18266754 2.85465271 13.04773865 2.53466797 11.87841797 C2.12521439 10.38905228 2.12521439 10.38905228 1.70748901 8.86959839 C0.98200039 5.92699301 0.45965652 2.99465825 0 0 Z " fill="#464646" transform="translate(130,41)"/>
<path d="M0 0 C1.2065625 0.0309375 1.2065625 0.0309375 2.4375 0.0625 C3.44258801 1.85131736 4.44142736 3.64364696 5.4375 5.4375 C5.994375 6.43523437 6.55125 7.43296875 7.125 8.4609375 C8.4375 11.0625 8.4375 11.0625 8.4375 13.0625 C21.6375 13.0625 34.8375 13.0625 48.4375 13.0625 C48.4375 15.0425 48.4375 17.0225 48.4375 19.0625 C42.22622974 19.18597317 36.01567144 19.27677988 29.8034668 19.3371582 C27.68973348 19.36232363 25.57608735 19.39645926 23.46264648 19.43969727 C20.42670202 19.50025941 17.39190638 19.52868909 14.35546875 19.55078125 C13.40850632 19.57658768 12.46154388 19.6023941 11.48588562 19.62898254 C9.03450164 19.63003374 6.83054888 19.59425168 4.4375 19.0625 C2.27923867 16.61342146 1.4375 15.32222641 1.4375 12.0625 C0.7775 12.0625 0.1175 12.0625 -0.5625 12.0625 C-0.665625 12.908125 -0.76875 13.75375 -0.875 14.625 C-1.6453854 18.47692701 -2.92524514 21.50325031 -4.5625 25.0625 C-7.25 25.4375 -7.25 25.4375 -10.5625 25.0625 C-11.24828125 24.07894531 -11.9340625 23.09539062 -12.640625 22.08203125 C-14.2956966 19.97631362 -15.15233508 19.16906223 -17.77270508 18.48828125 C-20.41301631 18.29123927 -22.97890342 18.29296528 -25.625 18.375 C-26.52283203 18.36017578 -27.42066406 18.34535156 -28.34570312 18.33007812 C-33.85518631 18.36973489 -33.85518631 18.36973489 -38.18359375 21.60546875 C-38.86615234 22.82169922 -38.86615234 22.82169922 -39.5625 24.0625 C-41.8125 24 -41.8125 24 -44.5625 23.0625 C-46.24099824 20.8316525 -47.32249263 18.58844094 -48.5625 16.0625 C-49.21605469 16.88105469 -49.86960938 17.69960937 -50.54296875 18.54296875 C-54.50019343 21.84492207 -56.91734429 21.66297821 -61.875 21.375 C-62.61556641 21.35244141 -63.35613281 21.32988281 -64.11914062 21.30664062 C-65.93447357 21.2480815 -67.74875681 21.15840886 -69.5625 21.0625 C-69.605221 19.39638095 -69.60313832 17.72867115 -69.5625 16.0625 C-68.5625 15.0625 -68.5625 15.0625 -66.05859375 14.96484375 C-64.54458984 14.98224609 -64.54458984 14.98224609 -63 15 C-61.98808594 15.00902344 -60.97617188 15.01804687 -59.93359375 15.02734375 C-58.75990234 15.04474609 -58.75990234 15.04474609 -57.5625 15.0625 C-57.5625 14.4025 -57.5625 13.7425 -57.5625 13.0625 C-56.9025 13.0625 -56.2425 13.0625 -55.5625 13.0625 C-55.294375 12.32 -55.02625 11.5775 -54.75 10.8125 C-53.62020579 8.19613446 -52.35356798 6.26062889 -50.5625 4.0625 C-48.375 4.0625 -48.375 4.0625 -45.5625 5.0625 C-43.60061466 7.57053179 -42.06328257 10.25891043 -40.5625 13.0625 C-39.9025 12.7325 -39.2425 12.4025 -38.5625 12.0625 C-34.08806428 11.81796163 -29.60536276 11.87729644 -25.125 11.875 C-23.87138672 11.86275391 -22.61777344 11.85050781 -21.32617188 11.83789062 C-20.12669922 11.83595703 -18.92722656 11.83402344 -17.69140625 11.83203125 C-16.58869385 11.82792236 -15.48598145 11.82381348 -14.34985352 11.81958008 C-11.5625 12.0625 -11.5625 12.0625 -8.5625 14.0625 C-8.03849609 12.67224609 -8.03849609 12.67224609 -7.50390625 11.25390625 C-7.04886719 10.05636719 -6.59382813 8.85882813 -6.125 7.625 C-5.67253906 6.43003906 -5.22007812 5.23507813 -4.75390625 4.00390625 C-3.16338982 0.07715585 -3.16338982 0.07715585 0 0 Z " fill="#585858" transform="translate(239.5625,80.9375)"/>
<path d="M0 0 C2 1.33333333 4 2.66666667 6 4 C8.72253174 3.35177816 10.53000698 2.29766225 12.875 0.8125 C16.15131441 -0.44020845 18.65171314 0.19393094 22 1 C24.71777458 5.07666186 24.86440241 8.30472329 24 13 C21.02335308 20.39981045 17.29791733 28.00498828 12 34 C9.3125 35 9.3125 35 7 35 C6.34 34.67 5.68 34.34 5 34 C5.58692507 28.54262656 8.63509876 24.71612974 11.67382812 20.34765625 C14.39977198 16.30098592 15.88631962 12.75900577 17 8 C14.43573501 9.09897071 12.96654483 10.03669277 11.0625 12.125 C9 14 9 14 6.5625 14.625 C2.72964912 13.69015832 1.40046179 11.01596481 -1 8 C-3.07796125 7.27517691 -3.07796125 7.27517691 -5 7 C-2.99144472 11.48062331 -1.33860591 14.93081281 2.3125 18.25 C3.199375 19.1575 4.08625 20.065 5 21 C4.67 22.32 4.34 23.64 4 25 C-0.95 25 -5.9 25 -11 25 C-11 23.02 -11 21.04 -11 19 C-10.01 18.67 -9.02 18.34 -8 18 C-8.66 17.175 -9.32 16.35 -10 15.5 C-12.62847002 11.53852018 -12.60421295 8.68265038 -12 4 C-9.20285312 -0.66191147 -5.05322782 -1.03605831 0 0 Z " fill="#575757" transform="translate(313,75)"/>
<path d="M0 0 C4.62 0 9.24 0 14 0 C16.94516552 7.35594298 19.05750302 14.91280737 21.1953125 22.53515625 C21.59202131 23.94189736 21.98890552 25.34858901 22.38595581 26.75523376 C23.21356078 29.69042404 24.03857331 32.62632762 24.86181641 35.56274414 C25.91324797 39.31202156 26.97189356 43.05921795 28.03257942 46.80588627 C28.85248814 49.70559652 29.66817816 52.6064809 30.4826622 55.50771904 C30.87119166 56.88949691 31.26109425 58.2708895 31.65243912 59.65187263 C32.19987108 61.5857858 32.74092298 63.52150147 33.28173828 65.45727539 C33.59023712 66.5545546 33.89873596 67.6518338 34.21658325 68.78236389 C35.04267194 72.17526146 35.56022683 75.53758535 36 79 C31.80936552 74.44496252 29.71214287 69.30502164 27.3125 63.6875 C26.62595337 62.10485352 26.62595337 62.10485352 25.92553711 60.49023438 C24.27202583 56.66506329 22.63389677 52.83357899 21 49 C20.66154053 48.20627991 20.32308105 47.41255981 19.97436523 46.5947876 C16.58743946 38.64972932 13.20537669 30.70261577 9.83911133 22.7487793 C9.48286682 21.90751999 9.12662231 21.06626068 8.75958252 20.19950867 C8.09369704 18.6265017 7.42847831 17.05321224 6.76409912 15.47956848 C4.56829387 10.29265121 2.29888905 5.14209303 0 0 Z " fill="#49494A" transform="translate(116,54)"/>
<path d="M0 0 C1.65 0 3.3 0 5 0 C9 4.97297297 9 4.97297297 9 8 C9.66 8 10.32 8 11 8 C11.99 8.99 11.99 8.99 13 10 C13.99 9.34 14.98 8.68 16 8 C18.69921875 7.8046875 18.69921875 7.8046875 21.6875 7.875 C23.17830078 7.90207031 23.17830078 7.90207031 24.69921875 7.9296875 C25.45847656 7.95289062 26.21773438 7.97609375 27 8 C27 9.98 27 11.96 27 14 C24.36 14 21.72 14 19 14 C18.5359375 15.7015625 18.5359375 15.7015625 18.0625 17.4375 C17 21 17 21 16 22 C13.67578125 22.375 13.67578125 22.375 11 22 C8.98046875 19.8125 8.98046875 19.8125 7.1875 17 C6.28064453 15.6078125 6.28064453 15.6078125 5.35546875 14.1875 C4.68451172 13.1046875 4.68451172 13.1046875 4 12 C3.01 13.98 2.02 15.96 1 18 C-16.49 18 -33.98 18 -52 18 C-52 16.35 -52 14.7 -52 13 C-36.49 12.67 -20.98 12.34 -5 12 C-3.35 8.04 -1.7 4.08 0 0 Z " fill="#575757" transform="translate(76,88)"/>
<path d="M0 0 C23.76 0 47.52 0 72 0 C72 2.31 72 4.62 72 7 C45.6 7 19.2 7 -8 7 C-8 6.67 -8 6.34 -8 6 C-4.535 5.505 -4.535 5.505 -1 5 C-0.67 3.35 -0.34 1.7 0 0 Z " fill="#434343" transform="translate(174,154)"/>
<path d="M0 0 C3.875 1.75 3.875 1.75 5 4 C5 3.01 5 2.02 5 1 C7.75078884 0.08307039 9.35948913 -0.10886083 12.1875 -0.0625 C14.0746875 -0.0315625 14.0746875 -0.0315625 16 0 C16.50478485 2.41575607 17.00397642 4.83244361 17.5 7.25 C17.64308594 7.93191406 17.78617188 8.61382812 17.93359375 9.31640625 C18.61251049 12.64633121 19 15.58332551 19 19 C16.36 19 13.72 19 11 19 C9.72746564 15.35206816 8.67170806 11.8063457 8 8 C6.35 7.67 4.7 7.34 3 7 C3 6.34 3 5.68 3 5 C2.34 5 1.68 5 1 5 C0.67 3.35 0.34 1.7 0 0 Z " fill="#464646" transform="translate(215,38)"/>
<path d="M0 0 C0.33 0 0.66 0 1 0 C1.46919848 7.20741 1.4627247 12.13470468 -3 18 C-3.99 18.33 -4.98 18.66 -6 19 C-8 16 -8 16 -7.75 13.0625 C-6.51876401 8.03495304 -4.70297932 5.58352837 -1 2 C-0.67 1.34 -0.34 0.68 0 0 Z " fill="#606060" transform="translate(335,80)"/>
<path d="M0 0 C4.62 0 9.24 0 14 0 C12.21398196 3.57203608 10.93313183 5.43350965 8 8 C7.34 8 6.68 8 6 8 C5.67 8.99 5.34 9.98 5 11 C3.35 7.37 1.7 3.74 0 0 Z " fill="#424242" transform="translate(116,54)"/>
<path d="M0 0 C0.66 0.33 1.32 0.66 2 1 C2 1.66 2 2.32 2 3 C2.66 3 3.32 3 4 3 C4.66 3.66 5.32 4.32 6 5 C7.32 4.34 8.64 3.68 10 3 C10 3.66 10 4.32 10 5 C8.25 6.2890625 8.25 6.2890625 6 7.625 C4.88625 8.29402344 4.88625 8.29402344 3.75 8.9765625 C3.1725 9.31429687 2.595 9.65203125 2 10 C3.28288757 12.55503957 3.28288757 12.55503957 5 15 C5.99 15 6.98 15 8 15 C8.66 13.68 9.32 12.36 10 11 C10.33 11.99 10.66 12.98 11 14 C9 17 9 17 6.61328125 17.5 C4 17 4 17 1.98046875 14.8125 C1.38878906 13.884375 0.79710938 12.95625 0.1875 12 C-0.41707031 11.071875 -1.02164063 10.14375 -1.64453125 9.1875 C-2.31548828 8.1046875 -2.31548828 8.1046875 -3 7 C-2.01 6.34 -1.02 5.68 0 5 C0.25030977 2.41619823 0.25030977 2.41619823 0 0 Z " fill="#515151" transform="translate(83,93)"/>
<path d="M0 0 C1.37478516 0.01740234 1.37478516 0.01740234 2.77734375 0.03515625 C3.69644531 0.04417969 4.61554688 0.05320312 5.5625 0.0625 C6.27277344 0.07410156 6.98304687 0.08570312 7.71484375 0.09765625 C7.14139438 2.96490311 6.85339225 3.95910775 4.71484375 6.09765625 C1.08984375 6.22265625 1.08984375 6.22265625 -2.28515625 6.09765625 C-2.66734392 4.44150968 -2.99910727 2.77308601 -3.28515625 1.09765625 C-2.28515625 0.09765625 -2.28515625 0.09765625 0 0 Z " fill="#4D4D4D" transform="translate(120.28515625,95.90234375)"/>
<path d="M0 0 C0.99 0.66 1.98 1.32 3 2 C3.6875 5.625 3.6875 5.625 4 9 C3.01 9.495 3.01 9.495 2 10 C1.67 9.34 1.34 8.68 1 8 C0.34 8 -0.32 8 -1 8 C-1.66 6.02 -2.32 4.04 -3 2 C-2.34 2 -1.68 2 -1 2 C-0.67 1.34 -0.34 0.68 0 0 Z " fill="#4F4F4F" transform="translate(143,106)"/>
<path d="M0 0 C2.875 -0.125 2.875 -0.125 6 0 C6.66 0.66 7.32 1.32 8 2 C7.34 2.66 6.68 3.32 6 4 C2.875 3.625 2.875 3.625 0 3 C0 2.01 0 1.02 0 0 Z " fill="#5A5A5A" transform="translate(119,98)"/>
<path d="M0 0 C4.95 0 9.9 0 15 0 C15 0.33 15 0.66 15 1 C10.05 1.66 5.1 2.32 0 3 C0 2.01 0 1.02 0 0 Z " fill="#3A3A3A" transform="translate(130,41)"/>
<path d="M0 0 C3.3 0 6.6 0 10 0 C10 0.66 10 1.32 10 2 C9.01 2 8.02 2 7 2 C7 2.99 7 3.98 7 5 C6.01 4.67 5.02 4.34 4 4 C4.33 3.67 4.66 3.34 5 3 C2.525 2.01 2.525 2.01 0 1 C0 0.67 0 0.34 0 0 Z " fill="#3B3B3B" transform="translate(213,37)"/>
<path d="M0 0 C2.3125 0.125 2.3125 0.125 5 1 C6.8125 4.0625 6.8125 4.0625 8 7 C7.34 7 6.68 7 6 7 C5.67 5.68 5.34 4.36 5 3 C2.69 3.33 0.38 3.66 -2 4 C-1.34 2.68 -0.68 1.36 0 0 Z " fill="#4C4C4C" transform="translate(189,85)"/>
<path d="M0 0 C0.66 0.33 1.32 0.66 2 1 C2.4140625 3.06640625 2.4140625 3.06640625 2.625 5.5625 C2.69976562 6.38878906 2.77453125 7.21507813 2.8515625 8.06640625 C2.92503906 9.02353516 2.92503906 9.02353516 3 10 C2.01 10.495 2.01 10.495 1 11 C-1.125 3.375 -1.125 3.375 0 0 Z " fill="#545454" transform="translate(165,106)"/>
<path d="M0 0 C1.65 0 3.3 0 5 0 C5 0.99 5 1.98 5 3 C2.69 3.66 0.38 4.32 -2 5 C-1.34 3.35 -0.68 1.7 0 0 Z " fill="#575757" transform="translate(237,81)"/>
<path d="M0 0 C0.33 0 0.66 0 1 0 C1.33 2.97 1.66 5.94 2 9 C1.01 9.495 1.01 9.495 0 10 C-0.185625 9.071875 -0.185625 9.071875 -0.375 8.125 C-0.87197356 5.80879168 -0.87197356 5.80879168 -3 4 C-2.34 4 -1.68 4 -1 4 C-0.67 2.68 -0.34 1.36 0 0 Z " fill="#535353" transform="translate(231,42)"/>
<path d="M0 0 C2.09350689 3.4019487 2.17942163 6.05272412 2 10 C0 9 0 9 -0.6328125 7.15234375 C-0.79523438 6.42144531 -0.95765625 5.69054687 -1.125 4.9375 C-1.29257813 4.20402344 -1.46015625 3.47054687 -1.6328125 2.71484375 C-1.75398437 2.14894531 -1.87515625 1.58304687 -2 1 C-1.34 0.67 -0.68 0.34 0 0 Z " fill="#373738" transform="translate(149,103)"/>
<path d="M0 0 C1.32 0.33 2.64 0.66 4 1 C4.33 3.31 4.66 5.62 5 8 C2.74754119 5.31158141 1.11786042 3.35358125 0 0 Z " fill="#4E4E4E" transform="translate(147,125)"/>
<path d="M0 0 C1.32 0 2.64 0 4 0 C4 1.32 4 2.64 4 4 C3.34 4 2.68 4 2 4 C1.67 4.66 1.34 5.32 1 6 C0 5 0 5 -0.0625 2.4375 C-0.041875 1.633125 -0.02125 0.82875 0 0 Z " fill="#5D5D5D" transform="translate(301,79)"/>
<path d="M0 0 C0.99 0.33 1.98 0.66 3 1 C3 1.66 3 2.32 3 3 C2.34 3 1.68 3 1 3 C0.67 3.99 0.34 4.98 0 6 C-0.66 5.34 -1.32 4.68 -2 4 C-2 3.01 -2 2.02 -2 1 C-1.34 0.67 -0.68 0.34 0 0 Z " fill="#434343" transform="translate(157,127)"/>
</svg>
