<?xml version="1.0" encoding="UTF-8"?>
<svg version="1.1" xmlns="http://www.w3.org/2000/svg" width="500" height="500">
<path d="M0 0 C14.39698148 7.34571498 24.23245926 19.04920729 29.37109375 34.34765625 C34.55659087 53.48035252 27.81432075 72.19661436 19.6875 89.3125 C9.97954216 109.33995292 9.97954216 109.33995292 2.6875 130.3125 C2.44644531 131.15683594 2.20539063 132.00117188 1.95703125 132.87109375 C-3.46717402 155.04116762 4.73396401 175.24606831 14.375 194.76171875 C18.84713498 203.8535814 23.19480798 212.81947068 26.25 222.5 C26.47695557 223.21647705 26.70391113 223.9329541 26.93774414 224.67114258 C30.32012525 236.0871714 30.9638504 247.20576647 30.8125 259.0625 C30.80243717 260.45311846 30.79331723 261.84374408 30.78515625 263.234375 C30.76182595 266.59393819 30.7290923 269.95312175 30.6875 273.3125 C28.43712637 270.47031133 26.73072021 267.62779494 25.12109375 264.3828125 C19.39043831 253.00894119 13.60140474 242.31748286 5.6875 232.3125 C5.10895264 231.56242676 4.53040527 230.81235352 3.93432617 230.03955078 C-0.85571408 223.91053188 -5.98197555 218.29106973 -11.5 212.8125 C-12.33515137 211.98298828 -13.17030273 211.15347656 -14.03076172 210.29882812 C-20.42976205 204.02428361 -26.90695843 198.39008366 -34.3125 193.3125 C-34.95364746 192.8700293 -35.59479492 192.42755859 -36.25537109 191.97167969 C-55.25179413 178.9606767 -75.46015425 170.31764913 -97.3125 163.3125 C-96.73414406 157.96121852 -95.82462214 152.88104459 -94.4050293 147.68408203 C-94.21228613 146.96153355 -94.01954296 146.23898506 -93.82095909 145.49454117 C-93.18128188 143.1017402 -92.53403512 140.71105714 -91.88671875 138.3203125 C-91.42626067 136.6042572 -90.96626536 134.88807767 -90.50669861 133.17178345 C-89.26788814 128.55083312 -88.02243242 123.9316983 -86.77558136 119.31291199 C-85.47817191 114.50285997 -84.18649104 109.6912698 -82.89404297 104.87988281 C-80.49820906 95.96487975 -78.09651917 87.05146558 -75.69236755 78.13870239 C-73.88592329 71.44114155 -72.08229341 64.74282915 -70.28076172 58.04394531 C-67.72153956 48.52778618 -65.15904396 39.01251395 -62.5939064 29.49794769 C-61.93690296 27.06028483 -61.28046121 24.62247124 -60.62411499 22.18463135 C-59.59986421 18.38113688 -58.5733648 14.57825637 -57.54504585 10.77585983 C-57.16995064 9.387614 -56.79557969 7.99917225 -56.4219799 6.61052322 C-55.91564532 4.72906694 -55.406394 2.84839631 -54.89697266 0.96777344 C-54.61326813 -0.08299377 -54.3295636 -1.13376099 -54.03726196 -2.21636963 C-53.3125 -4.6875 -53.3125 -4.6875 -52.3125 -6.6875 C-35.84233382 -12.17755539 -15.08419773 -7.20769415 0 0 Z " fill="#033122" transform="translate(214.3125,149.6875)"/>
<path d="M0 0 C0.69633545 0.03448242 1.3926709 0.06896484 2.11010742 0.10449219 C5.90085644 0.34816731 9.4978955 0.86521315 13.20288086 1.71557617 C13.999879 1.89714767 14.79687714 2.07871918 15.61802673 2.26579285 C16.21845291 2.40495621 16.81887909 2.54411957 17.4375 2.6875 C22.64977398 20.60418831 27.55291535 38.60450107 32.43505859 56.61328125 C33.36049912 60.02572991 34.28974738 63.43710833 35.22216797 66.84765625 C36.36287058 71.02004971 37.49742552 75.19406766 38.627491 79.36935425 C39.05516735 80.94556202 39.48496562 82.52119572 39.91697311 84.09622192 C40.51617058 86.28264235 41.1074147 88.47106758 41.69677734 90.66015625 C42.03397797 91.90031494 42.37117859 93.14047363 42.71859741 94.41821289 C43.35564311 97.31524696 43.59311375 99.73987441 43.4375 102.6875 C42.80996826 102.8827124 42.18243652 103.0779248 41.53588867 103.27905273 C12.64812614 112.35400428 -12.86508102 124.88972451 -35.265625 145.578125 C-37.32185351 147.46649812 -39.42536408 149.26730583 -41.5625 151.0625 C-60.54283346 167.7225923 -73.33842415 189.92709137 -83.5625 212.6875 C-84.71878572 209.24535736 -84.39134013 206.87818872 -83.6015625 203.36328125 C-83.37726563 202.33396484 -83.15296875 201.30464844 -82.921875 200.24414062 C-82.67953125 199.17357422 -82.4371875 198.10300781 -82.1875 197 C-75.87392982 168.71034902 -78.91942756 141.38120539 -82.42797852 112.87817383 C-86.04982808 83.13594672 -85.03135148 55.77829132 -67.28125 30.4296875 C-55.28754034 15.20390673 -37.80688201 3.93655151 -18.5625 0.6875 C-17.78261719 0.54699219 -17.00273437 0.40648437 -16.19921875 0.26171875 C-10.78735851 -0.49321301 -5.43844362 -0.28153335 0 0 Z " fill="#033122" transform="translate(339.5625,210.3125)"/>
<path d="M0 0 C2.56398896 0.57728135 5.12602075 1.16175969 7.6875 1.75 C8.38939453 1.90726563 9.09128906 2.06453125 9.81445312 2.2265625 C11.3377683 2.57861756 12.85303566 2.96667958 14.36010742 3.3828125 C17.07724711 4.08975893 17.07724711 4.08975893 20.2434082 4.2421875 C24.32902878 4.83140068 26.64449 5.55733569 30 8 C34.01067654 14.6684201 35.12770239 23.01202504 36.8125 30.5 C37.40221548 32.92254663 37.99821776 35.3435698 38.59985352 37.76318359 C39.60176392 41.80688268 40.5988057 45.85116353 41.56962585 49.9024353 C44.55605054 62.35495193 47.75735198 74.7468401 51.0078125 87.1328125 C51.4030351 88.63941814 51.4030351 88.63941814 51.80624199 90.17646027 C52.87956236 94.26684393 53.95345497 98.35707633 55.02851772 102.44700241 C56.8704873 109.45624389 58.70150569 116.46826345 60.5246582 123.48242188 C60.77359738 124.4399297 61.02253656 125.39743752 61.27901936 126.38396072 C62.2592584 130.15476136 63.23933473 133.92560412 64.21887398 137.69658661 C66.61224705 146.90691548 69.01781468 156.11309126 71.50048828 165.29980469 C71.78878494 166.36890737 71.78878494 166.36890737 72.08290577 167.45960808 C72.963291 170.7223842 73.84904815 173.98340233 74.74449158 177.24209595 C75.19593285 178.90769058 75.19593285 178.90769058 75.65649414 180.60693359 C76.04883995 182.03711319 76.04883995 182.03711319 76.44911194 183.4961853 C77 186 77 186 77 190 C75.66714966 190.05945801 75.66714966 190.05945801 74.30737305 190.12011719 C23.53219921 192.48463934 -26.89241555 200.25989998 -67 234 C-67.54366211 234.45262207 -68.08732422 234.90524414 -68.64746094 235.37158203 C-74.79120296 240.53835551 -80.00727206 246.12152697 -84.9296875 252.45703125 C-87.1290912 255.15856296 -89.50143399 257.57543334 -92 260 C-90.54048217 255.06362034 -88.46158007 250.82523841 -85.9375 246.375 C-85.53901855 245.67205811 -85.14053711 244.96911621 -84.72998047 244.24487305 C-58.83798128 199.47095782 -15.85210164 176.36556174 32.2878418 162.64501953 C35.50396802 161.88014371 38.72668096 161.45179532 42 161 C38.65200758 148.26988187 35.30103045 135.54055109 31.94796753 122.81176758 C31.40121325 120.73610042 30.85452092 118.66041694 30.30789185 116.5847168 C24.38448194 94.09217803 18.45360383 71.60201989 12.3984375 49.14453125 C12.07850515 47.95742837 12.07850515 47.95742837 11.75210953 46.74634361 C9.75738097 39.34622006 7.75847456 31.94725823 5.7479496 24.55140972 C5.20007277 22.53421708 4.65375059 20.51661087 4.10806274 18.49882507 C3.45235277 16.07536938 2.79368126 13.65271219 2.13143921 11.23103333 C1.84765411 10.18026108 1.56386902 9.12948883 1.27148438 8.046875 C1.02410522 7.13776367 0.77672607 6.22865234 0.52185059 5.29199219 C0 3 0 3 0 0 Z " fill="#043122" transform="translate(356,162)"/>
<path d="M0 0 C-1.59534557 11.02659028 -4.74641025 21.70930596 -7.64453125 32.4453125 C-8.21628077 34.57654151 -8.78761676 36.70788149 -9.35856628 38.83932495 C-10.86711108 44.4669006 -12.38080947 50.09307683 -13.89575195 55.71893311 C-15.38568582 61.25460283 -16.87157974 66.79135585 -18.35742188 72.328125 C-18.64926802 73.41561916 -18.94111416 74.50311333 -19.24180412 75.62356186 C-19.83151358 77.82097508 -20.42120921 80.01839202 -21.01089096 82.21581268 C-21.89321353 85.50290335 -22.77616469 88.78982467 -23.65921021 92.07672119 C-29.82556441 115.03714192 -35.91836625 138.01701601 -42 161 C-40.8908876 161.19521744 -40.8908876 161.19521744 -39.7593689 161.39437866 C-38.78094025 161.56893585 -37.8025116 161.74349304 -36.79443359 161.92333984 C-35.82815033 162.0947348 -34.86186707 162.26612976 -33.86630249 162.44271851 C-29.70371253 163.25203098 -25.67716806 164.3852918 -21.625 165.625 C-20.35305786 166.0130481 -20.35305786 166.0130481 -19.05541992 166.40893555 C27.69007516 180.97857008 63.43947254 208.03717699 88.3125 250.4375 C88.79895996 251.26048584 89.28541992 252.08347168 89.78662109 252.93139648 C90.44331787 254.07717163 90.44331787 254.07717163 91.11328125 255.24609375 C91.50298096 255.92341553 91.89268066 256.6007373 92.29418945 257.29858398 C92.52710693 257.86005127 92.76002441 258.42151855 93 259 C92.67 259.66 92.34 260.32 92 261 C90.81206989 259.66704985 89.6246859 258.33361301 88.4375 257 C87.70015625 256.17242187 86.9628125 255.34484375 86.203125 254.4921875 C84.34235349 252.38727221 82.51284376 250.26047499 80.6875 248.125 C68.05121707 233.78494859 53.96748746 222.83337954 37 214 C36.06196533 213.5035498 36.06196533 213.5035498 35.10498047 212.99707031 C0.46346315 194.89235133 -38.69174584 191.87931104 -77 190 C-75.56003324 180.39068349 -73.03576755 171.07334947 -70.55161095 161.69496346 C-69.76431071 158.72206714 -68.98267479 155.74772551 -68.20210266 152.77305603 C-65.61795496 142.9370796 -63.01062651 133.10740656 -60.38394928 123.28270531 C-58.8809617 117.65956193 -57.38288769 112.03511732 -55.88671875 106.41015625 C-55.58841408 105.28993954 -55.29010941 104.16972282 -54.9827652 103.01556015 C-51.21359539 88.82901503 -47.67980353 74.61872422 -44.48204613 60.29269981 C-43.35140548 55.27161611 -42.16874931 50.262484 -40.98578739 45.25350285 C-40.08107501 41.39577904 -39.21873912 37.53757633 -38.44754028 33.65078735 C-33.8857135 10.77085423 -33.8857135 10.77085423 -27.30725098 6.07983398 C-21.27043604 3.25390847 -15.11403162 1.95809057 -8.50845337 1.27606201 C-5.61198631 0.95729805 -2.90532875 0 0 0 Z " fill="#043122" transform="translate(144,162)"/>
<path d="M0 0 C5.72920867 0.62288112 11.23376181 1.55238391 16.8125 3 C17.56208984 3.15855469 18.31167969 3.31710938 19.08398438 3.48046875 C21.36794684 4.08870898 23.01628813 4.71166061 25 6 C25.93638802 7.84984398 25.93638802 7.84984398 26.58352661 10.07333374 C26.82502064 10.88215374 27.06651466 11.69097374 27.31532669 12.52430344 C27.54126888 13.3412833 27.76721107 14.15826317 28 15 C28.2037965 15.71368366 28.407593 16.42736732 28.61756516 17.16267776 C29.23078373 19.3580415 29.81566982 21.55936922 30.39404297 23.76416016 C30.61474677 24.59595669 30.83545057 25.42775322 31.06284237 26.28475571 C31.79199275 29.03548392 32.51707945 31.7872662 33.2421875 34.5390625 C33.76370943 36.50947909 34.28550041 38.47982449 34.80754089 40.45010376 C36.20941733 45.7437686 37.60786938 51.03833238 39.00563431 56.33308411 C40.45946443 61.83811671 41.91616265 67.34239006 43.37280273 72.84667969 C43.96324392 75.07788024 44.55368275 77.30908141 45.14411926 79.5402832 C45.58437911 81.20394424 45.58437911 81.20394424 46.0335331 82.9012146 C46.92924331 86.28652223 47.82454418 89.67193791 48.71977234 93.05737305 C52.33147038 106.71302304 55.95673234 120.36497788 59.59807587 134.01275253 C60.34538733 136.813776 61.09233755 139.61489555 61.83917236 142.41604614 C64.63325367 152.89591693 64.63325367 152.89591693 67.43280029 163.37432861 C68.50207074 167.37202841 69.56881483 171.37039376 70.63366127 175.36927414 C71.02029086 176.81921368 71.4079021 178.26889189 71.79659081 179.71828079 C72.32406643 181.68552602 72.84779518 183.65377476 73.37133789 185.62207031 C73.6637587 186.71658508 73.9561795 187.81109985 74.25746155 188.93878174 C74.98721769 191.94730315 75.53171857 194.9408556 76 198 C66.2938582 197.32671872 56.66714848 196.30547015 47.01367188 195.10546875 C31.96677322 193.29874593 17.01234318 192.79261007 1.875 192.8125 C0.59058014 192.81340637 0.59058014 192.81340637 -0.7197876 192.81433105 C-13.9080846 192.83951891 -26.91834807 193.19153262 -40 195 C-41.49394287 195.20133545 -41.49394287 195.20133545 -43.01806641 195.40673828 C-74.46622081 199.75487539 -105.70023843 207.94597733 -131 228 C-131.66 227.67 -132.32 227.34 -133 227 C-126.53264417 219.49450028 -119.89475663 213.0358494 -112 207 C-111.18402344 206.35675781 -110.36804688 205.71351563 -109.52734375 205.05078125 C-96.64765859 195.23673985 -82.3106126 187.26242724 -67 182 C-66.30535645 181.75443359 -65.61071289 181.50886719 -64.89501953 181.25585938 C-45.88400877 174.60010998 -26.07898764 170.52695398 -6 169 C-5.27683594 168.94360352 -4.55367187 168.88720703 -3.80859375 168.82910156 C12.08941683 167.64446144 28.13303277 167.2949891 44 169 C43.84622643 168.47022049 43.69245285 167.94044098 43.53401947 167.39460754 C39.71446092 154.20615604 36.09857359 140.97895251 32.65625 127.6875 C32.16455091 125.79709119 31.67260078 123.90674767 31.18041992 122.01646423 C29.88366008 117.03396751 28.58970162 112.05074769 27.2963562 107.06736374 C25.15485269 98.81883098 23.00817089 90.57164308 20.86164856 82.32441521 C20.3293989 80.27939199 19.79724336 78.23434427 19.2651825 76.18927193 C15.97506873 63.54462029 12.6665021 50.90520476 9.3125 38.27734375 C8.80704651 36.37307114 8.80704651 36.37307114 8.29138184 34.43032837 C6.78641995 28.76519758 5.27632808 23.10148891 3.75976562 17.43945312 C3.24601943 15.51043646 2.73234226 13.58140141 2.21875 11.65234375 C1.98873291 10.80067123 1.75871582 9.94899872 1.52172852 9.07151794 C0.69784582 5.96821425 0 3.22599622 0 0 Z " fill="#043122" transform="translate(405,195)"/>
<path d="M0 0 C-1.19843394 7.04807901 -2.6477241 13.95439494 -4.48339844 20.86279297 C-4.72479239 21.78479838 -4.96618633 22.7068038 -5.21489525 23.65674877 C-6.00912301 26.68627653 -6.80920875 29.71422334 -7.609375 32.7421875 C-8.17474341 34.89390374 -8.73974831 37.04571552 -9.30441284 39.19761658 C-10.80585475 44.91527669 -12.31238636 50.63158365 -13.82007599 56.34759903 C-15.36894612 62.22279522 -16.91346584 68.09913489 -18.45849609 73.9753418 C-21.16396606 84.26240934 -23.8734988 94.54840126 -26.5848484 104.83392048 C-28.83993854 113.38975477 -31.08913994 121.94712513 -33.33607483 130.50510406 C-34.47529364 134.84274016 -35.61651838 139.17984839 -36.75793457 143.51690674 C-37.33328438 145.70373014 -37.90807812 147.89069993 -38.4822998 150.07781982 C-39.2490376 152.99647123 -40.01855279 155.91437374 -40.7890625 158.83203125 C-41.00440643 159.65396469 -41.21975037 160.47589813 -41.44161987 161.32273865 C-42.8852983 166.77059659 -42.8852983 166.77059659 -44 169 C-43.36578125 168.9278125 -42.7315625 168.855625 -42.078125 168.78125 C10.23660967 163.5786797 70.87317815 173.53899534 112.73291016 207.40185547 C115.93716154 210.14906944 118.96147037 213.07306912 122 216 C124.13164996 217.82963695 126.27711356 219.63885904 128.44140625 221.4296875 C130.15022389 223.1513534 131.03719426 224.78698382 132 227 C128.92113498 225.55559419 126.06664594 223.82797129 123.18237305 222.03100586 C100.0480684 207.72875589 74.86146989 199.90271857 48 196 C47.25008789 195.88962402 46.50017578 195.77924805 45.72753906 195.66552734 C30.30071335 193.44822668 14.93948903 192.79369726 -0.625 192.8125 C-1.47527771 192.81277191 -2.32555542 192.81304382 -3.20159912 192.81332397 C-24.9290408 192.84507513 -46.38453867 194.14079385 -67.83544922 197.75634766 C-70.56467233 198.06356226 -73.25550959 198.01458918 -76 198 C-73.47966929 187.06891754 -70.79645762 176.19947106 -67.89453125 165.36328125 C-67.49741885 163.87257306 -67.10054066 162.38180246 -66.70387268 160.89097595 C-65.63307337 156.86906664 -64.55927273 152.84796526 -63.48455048 148.82710266 C-61.62671188 141.87565176 -59.77182677 134.92341155 -57.9169693 127.9711647 C-57.42565729 126.12984998 -56.93421623 124.28856968 -56.44264984 122.44732285 C-52.60455092 108.06905691 -48.80601254 93.68068198 -45.02526665 79.28723717 C-43.31739548 72.7899751 -41.60387355 66.29420088 -39.89018726 59.7984705 C-38.49258716 54.49884658 -37.0988781 49.1982576 -35.71353149 43.89541626 C-34.40516378 38.8875012 -33.08728436 33.88218627 -31.76222038 28.87866402 C-31.27372448 27.02689962 -30.78883515 25.17417966 -30.30774117 23.32047844 C-29.64868354 20.7829898 -28.977082 18.2491507 -28.30224609 15.71582031 C-28.11220914 14.9715746 -27.92217218 14.22732889 -27.72637653 13.46053028 C-26.02825048 7.18111461 -26.02825048 7.18111461 -23 5 C-20.97875977 4.20043945 -20.97875977 4.20043945 -18.69140625 3.61328125 C-17.86189453 3.39736328 -17.03238281 3.18144531 -16.17773438 2.95898438 C-15.31470703 2.74564453 -14.45167969 2.53230469 -13.5625 2.3125 C-12.70333984 2.08755859 -11.84417969 1.86261719 -10.95898438 1.63085938 C-7.11433697 0.64956458 -4.00862308 0 0 0 Z " fill="#043122" transform="translate(95,195)"/>
<path d="M0 0 C6.68499637 5.45321201 10.26580807 11.90977467 12.78515625 20.09765625 C13.96922582 32.23436933 11.87647648 42.07018479 4.03515625 51.66015625 C-1.91261147 57.92904758 -9.34836412 62.22371643 -18.03125 62.8984375 C-28.85009315 63.12811127 -38.84453988 61.31119633 -46.96484375 53.66015625 C-54.50217668 45.52202142 -57.63958317 36.74018396 -57.5012207 25.70092773 C-56.9990939 15.19841871 -52.9784244 7.53651817 -45.29296875 0.5 C-31.76685799 -10.18925867 -13.85399418 -9.94457784 0 0 Z " fill="#033121" transform="translate(317.96484375,121.33984375)"/>
<path d="M0 0 C0.66 0.99 1.32 1.98 2 3 C1.67 3.66 1.34 4.32 1 5 C1.061875 6.03125 1.12375 7.0625 1.1875 8.125 C0.98382453 12.33429303 0.00490635 14.35118996 -1.984375 17.9375 C-3.04907707 20.09966421 -3.60503538 22.08927267 -4.125 24.4375 C-4.41375 25.613125 -4.7025 26.78875 -5 28 C-5.66 28.33 -6.32 28.66 -7 29 C-5.53869493 19.09802233 -2.76626489 9.59746099 0 0 Z " fill="#0F2D23" transform="translate(125,279)"/>
<path d="M0 0 C0.88852764 2.48787739 1.17660068 3.58372698 0.125 6.0625 C-0.24625 6.701875 -0.6175 7.34125 -1 8 C-2.42056443 12.26169329 -2.38461848 16.50087683 -2.62109375 20.96875 C-3 24 -3 24 -5 27 C-5.41871652 17.62540247 -5.7704825 9.44892685 -1 1 C-0.67 0.67 -0.34 0.34 0 0 Z " fill="#0F2D24" transform="translate(266,130)"/>
<path d="M0 0 C1.58420129 0.62279669 3.16732531 1.24833401 4.75 1.875 C6.07257813 2.39707031 6.07257813 2.39707031 7.421875 2.9296875 C9.6740248 3.8646709 11.83649459 4.87780794 14 6 C14 6.66 14 7.32 14 8 C11.03 7.01 8.06 6.02 5 5 C5 4.34 5 3.68 5 3 C3.35 2.67 1.7 2.34 0 2 C0 1.34 0 0.68 0 0 Z " fill="#112E24" transform="translate(205,146)"/>
<path d="M0 0 C0.99 0.33 1.98 0.66 3 1 C3 1.99 3 2.98 3 4 C4.32 4.66 5.64 5.32 7 6 C7 6.66 7 7.32 7 8 C7.66 8.33 8.32 8.66 9 9 C6.66471585 8.82701599 5.30822418 8.29774631 3.62109375 6.66796875 C0 2.42788462 0 2.42788462 0 0 Z " fill="#0E2E24" transform="translate(265,165)"/>
<path d="" fill="#101010" transform="translate(0,0)"/>
<path d="" fill="#171C1C" transform="translate(0,0)"/>
</svg>
