<?xml version="1.0" encoding="UTF-8"?>
<svg version="1.1" xmlns="http://www.w3.org/2000/svg" width="500" height="500">
<path d="M0 0 C10.25992817 -0.51876041 16.89273316 -0.31280311 24.8125 6.375 C29.33732347 11.80478817 30.55928313 16.09669388 30.3515625 23.07421875 C29.50927492 30.0839232 26.37841653 36.22556617 23.3125 42.5 C19.61982804 50.53699191 19.01358147 57.92837134 21.90234375 66.3125 C23.67624815 70.65572502 25.65058916 74.89549502 27.6953125 79.1171875 C29.95129343 84.10195974 30.1293099 88.31270174 30.0625 93.75 C30.05798828 94.44738281 30.05347656 95.14476562 30.04882812 95.86328125 C30.0371002 97.57555803 30.01916653 99.28779033 30 101 C27.7845652 98.1891671 25.93147053 95.24740446 24.09643555 92.17797852 C14.70944838 76.74201766 1.12529081 67.42750358 -16 62 C-15.26827539 55.42679121 -13.57719618 49.17421937 -11.875 42.79296875 C-11.56804199 41.63122635 -11.26108398 40.46948395 -10.94482422 39.27253723 C-10.29778851 36.82710533 -9.6488234 34.3821832 -8.99804688 31.93774414 C-7.99916063 28.184346 -7.00692512 24.42923612 -6.015625 20.67382812 C-5.38580702 18.29677154 -4.75561188 15.91981485 -4.125 13.54296875 C-3.82706543 12.4159404 -3.52913086 11.28891205 -3.22216797 10.12773132 C-2.94518066 9.08937637 -2.66819336 8.05102142 -2.3828125 6.98120117 C-2.13934082 6.06521652 -1.89586914 5.14923187 -1.64501953 4.20549011 C-1 2 -1 2 0 0 Z " fill="#043021" transform="translate(218,170)"/>
<path d="M0 0 C2.88935127 7.13002992 4.78997382 14.42750684 6.6875 21.875 C7.00783203 23.10992187 7.32816406 24.34484375 7.65820312 25.6171875 C10 34.72473014 10 34.72473014 10 37 C9.04480469 37.35191406 8.08960938 37.70382813 7.10546875 38.06640625 C-9.52381186 44.34584373 -22.26708264 52.94648327 -31.52734375 68.5546875 C-32.89545845 70.82641112 -34.37157914 72.90978815 -36 75 C-35.9278125 74.35675781 -35.855625 73.71351563 -35.78125 73.05078125 C-34.6997553 62.52122867 -34.75236191 52.42844719 -36.0625 41.9375 C-37.65205961 28.71098179 -36.49237434 19.52264983 -29.1875 8.1875 C-20.7394572 -0.2605428 -11.46886957 -1.77180866 0 0 Z " fill="#043021" transform="translate(288,195)"/>
<path d="M0 0 C1.45903258 0.30921884 2.91720722 0.62248799 4.375 0.9375 C5.18710937 1.11152344 5.99921875 1.28554687 6.8359375 1.46484375 C9 2 9 2 11 3 C11.79650879 5.22363281 11.79650879 5.22363281 12.57226562 8.203125 C12.86597046 9.31518311 13.15967529 10.42724121 13.46228027 11.57299805 C13.77379028 12.78640869 14.08530029 13.99981934 14.40625 15.25 C14.73161743 16.49241455 15.05698486 17.7348291 15.39221191 19.01489258 C16.26016986 22.33042827 17.11805353 25.64849535 17.97418213 28.96710205 C18.66856333 31.65169342 19.37011147 34.33438521 20.07209015 37.01699829 C25.99561896 59.6594849 25.99561896 59.6594849 28 69 C26.73027344 69.09796875 25.46054687 69.1959375 24.15234375 69.296875 C4.01025936 70.9837377 -15.16004548 74.74506761 -29.4609375 90.1171875 C-31.05460701 91.92603079 -31.05460701 91.92603079 -32 94 C-32.66 93.67 -33.32 93.34 -34 93 C-26.69604418 79.53780692 -17.44215455 69.88642959 -3.625 63.3125 C-3.02478027 63.02673096 -2.42456055 62.74096191 -1.80615234 62.4465332 C1.8097582 60.79973541 5.43581746 59.52190577 9.24853516 58.39916992 C10.58689926 58.00334969 10.58689926 58.00334969 11.95230103 57.59953308 C12.62804169 57.40168716 13.30378235 57.20384125 14 57 C13.82460693 56.34489441 13.64921387 55.68978882 13.46850586 55.01483154 C11.64589506 48.20336245 9.83020913 41.39007475 8.01855469 34.57568359 C7.34129853 32.03191467 6.66227112 29.48861664 5.98144531 26.94580078 C5.0038117 23.29321339 4.03253604 19.6389864 3.0625 15.984375 C2.75626709 14.84570984 2.45003418 13.70704468 2.13452148 12.53387451 C1.85423096 11.47307678 1.57394043 10.41227905 1.28515625 9.31933594 C1.03644775 8.38667908 0.78773926 7.45402222 0.53149414 6.49310303 C0 4 0 4 0 0 Z " fill="#062F21" transform="translate(288,177)"/>
<path d="M0 0 C4.95 0.99 4.95 0.99 10 2 C12.3498117 10.83078796 14.69697323 19.66227471 17.04072571 28.49467278 C18.12903 32.59559385 19.21825617 36.69626548 20.30957031 40.79638672 C21.362113 44.75097676 22.41225868 48.70619608 23.46072388 52.66186905 C23.86176707 54.17321708 24.2636831 55.68433378 24.66647339 57.19521713 C25.22915904 59.30646514 25.78877528 61.41850389 26.34765625 63.53076172 C26.66742432 64.73433319 26.98719238 65.93790466 27.31665039 67.177948 C28 70 28 70 28 72 C26.89265503 71.89341064 26.89265503 71.89341064 25.76293945 71.78466797 C-0.33304972 69.36136783 -23.50188016 69.08894514 -47 82 C-42.95742197 72.53294227 -30.98089886 67.7355894 -22 64 C-12.00750514 60.88870046 -2.09558258 59.95004213 8.31640625 59.98046875 C10.19694702 59.98469849 10.19694702 59.98469849 12.11547852 59.98901367 C13.06737061 59.99263916 14.0192627 59.99626465 15 60 C14.81207886 59.29256149 14.62415771 58.58512299 14.43054199 57.85624695 C12.66091132 51.19174161 10.89482661 44.52630574 9.13272858 37.85980511 C8.22667491 34.43246225 7.31925004 31.00549471 6.40869141 27.5793457 C5.36212763 23.64120985 4.32152989 19.70151922 3.28125 15.76171875 C2.95314331 14.53039719 2.62503662 13.29907562 2.2869873 12.03044128 C1.98667603 10.88948502 1.68636475 9.74852875 1.37695312 8.57299805 C1.11047974 7.567061 0.84400635 6.56112396 0.56945801 5.52470398 C0 3 0 3 0 0 Z " fill="#062E21" transform="translate(305,189)"/>
<path d="M0 0 C-0.71594366 6.27823298 -2.27143793 12.23592724 -3.90625 18.33203125 C-4.19101196 19.40498947 -4.47577393 20.47794769 -4.76916504 21.5834198 C-5.36910601 23.8405446 -5.97099118 26.09715343 -6.57470703 28.35327148 C-7.50118905 31.81694529 -8.42098709 35.28234328 -9.33984375 38.74804688 C-9.92408739 40.94281266 -10.50870953 43.13747773 -11.09375 45.33203125 C-11.36981079 46.37156448 -11.64587158 47.41109772 -11.93029785 48.48213196 C-12.1872644 49.4404039 -12.44423096 50.39867584 -12.70898438 51.38598633 C-12.93469116 52.23091141 -13.16039795 53.07583649 -13.39294434 53.94636536 C-14 56 -14 56 -15 58 C-13.83597656 58.20302734 -13.83597656 58.20302734 -12.6484375 58.41015625 C5.10829099 61.9487883 18.49137926 70.66874993 29.1875 85.0703125 C31.00129298 88.00208995 32.05853041 90.69504946 33 94 C32.34 93.319375 31.68 92.63875 31 91.9375 C30.00077433 90.95754315 29.00069452 89.97845687 28 89 C27.48824219 88.46890625 26.97648437 87.9378125 26.44921875 87.390625 C11.5679367 73.00428581 -8.3463927 70.65074765 -28 69 C-26.57159205 61.35586094 -24.75880526 53.8436877 -22.8125 46.31640625 C-22.50932861 45.13908432 -22.20615723 43.96176239 -21.89379883 42.74876404 C-21.25650519 40.27850278 -20.61772913 37.80862353 -19.97753906 35.33911133 C-18.99707648 31.55120532 -18.02572568 27.76103453 -17.0546875 23.97070312 C-16.43284648 21.56496069 -15.81046964 19.15935668 -15.1875 16.75390625 C-14.89786377 15.61957657 -14.60822754 14.48524689 -14.30981445 13.31654358 C-14.03613037 12.26792648 -13.76244629 11.21930939 -13.48046875 10.13891602 C-13.24223389 9.2164357 -13.00399902 8.29395538 -12.75854492 7.34352112 C-12 5 -12 5 -10 2 C-8.125 1.26953125 -8.125 1.26953125 -6 0.8125 C-5.29875 0.65394531 -4.5975 0.49539062 -3.875 0.33203125 C-2 0 -2 0 0 0 Z " fill="#052F21" transform="translate(212,177)"/>
<path d="M0 0 C-4.95 19.14 -9.9 38.28 -15 58 C-3.615 58.99 -3.615 58.99 8 60 C23.90266953 63.11139186 35.48488185 68.53686884 47 80 C43.4028062 80 42.04634303 79.01648746 38.9375 77.25 C18.52224022 66.83304598 -5.90739835 68.18821434 -28 71 C-26.66039947 62.78273291 -24.73938585 54.81242254 -22.55859375 46.78125 C-22.23085464 45.56095093 -21.90311554 44.34065186 -21.56544495 43.08337402 C-20.70269131 39.87472263 -19.83603792 36.66717765 -18.9675293 33.46008301 C-18.25752501 30.83444071 -17.55156709 28.20771835 -16.84577847 25.58094025 C-15.38769389 20.15502747 -13.92659294 14.72991899 -12.45874023 9.30664062 C-12.20051987 8.35164673 -11.9422995 7.39665283 -11.67625427 6.41271973 C-11.16649882 4.59402949 -10.59728425 2.79185276 -10 1 C-5.93722605 -0.80567731 -4.41147506 -1.10286876 0 0 Z " fill="#062F21" transform="translate(195,190)"/>
<path d="M0 0 C2.97 0 5.94 0 9 0 C9.99 4.62 10.98 9.24 12 14 C13.17217819 10.48346543 14.26448346 7.1899971 15.125 3.625 C15.41375 2.42875 15.7025 1.2325 16 0 C18.64 0 21.28 0 24 0 C25.77362508 4.94081272 26.91266548 9.87399439 28 15 C29.32 10.05 30.64 5.1 32 0 C34.64 0 37.28 0 40 0 C39.35521919 6.34405026 38.03753669 12.3329118 36.4375 18.5 C36.08655273 19.87671875 36.08655273 19.87671875 35.72851562 21.28125 C35.15667224 23.52194245 34.578944 25.76113167 34 28 C30.37 28 26.74 28 23 28 C22.01 24.37 21.02 20.74 20 17 C19.01 20.63 18.02 24.26 17 28 C13.7 28 10.4 28 7 28 C1.62870159 9.17995444 1.62870159 9.17995444 0 0 Z " fill="#062D20" transform="translate(257,287)"/>
<path d="M0 0 C2.35125 -0.061875 4.7025 -0.12375 7.125 -0.1875 C7.85348145 -0.21481201 8.58196289 -0.24212402 9.33251953 -0.27026367 C13.99817348 -0.32910634 17.04642163 0.56657546 21 3 C23.92156017 6.22379053 24.91403098 8.88240274 25.25 13.25 C24.92320071 18.15198941 23.58931066 22.01336167 20.5 25.875 C16.7095715 28.71782138 12.30025152 28.11306495 7.8125 28.0625 C5.234375 28.041875 2.65625 28.02125 0 28 C0 18.76 0 9.52 0 0 Z M9 7 C9 11.62 9 16.24 9 21 C10.98 20.67 12.96 20.34 15 20 C16.59071226 16.81857548 16.39662254 13.46336466 16 10 C14.91325006 7.91015769 14.91325006 7.91015769 13 7 C11.68 7 10.36 7 9 7 Z " fill="#062E21" transform="translate(166,287)"/>
<path d="M0 0 C4.1544881 3.57479209 5.51391779 5.75026011 6.125 11.25 C5.92992992 15.55779758 4.61785973 18.08159056 1.6875 21.3125 C-2.07349739 23.51232866 -4.51656704 24.3125 -8.875 24.3125 C-13.91202918 22.84718242 -16.92259218 20.54843866 -19.75 16 C-20.81402842 10.91630868 -20.27731008 6.8428884 -17.5 2.4375 C-12.30176172 -2.61221719 -6.43323463 -3.27730821 0 0 Z " fill="#053021" transform="translate(273.3125,161.6875)"/>
<path d="M0 0 C3.58875 -0.061875 3.58875 -0.061875 7.25 -0.125 C7.99668945 -0.14320801 8.74337891 -0.16141602 9.51269531 -0.18017578 C13.17846664 -0.21074031 15.97656697 -0.17399232 19 2 C21.68388388 6.02582582 21.79509386 9.27084796 21 14 C18.9375 17.0625 18.9375 17.0625 16 19 C12.1875 19.3125 12.1875 19.3125 9 19 C9 21.97 9 24.94 9 28 C6.03 28 3.06 28 0 28 C0 18.76 0 9.52 0 0 Z M9 7 C9 8.65 9 10.3 9 12 C10.32 11.67 11.64 11.34 13 11 C12.67 9.68 12.34 8.36 12 7 C11.01 7 10.02 7 9 7 Z " fill="#062F21" transform="translate(139,287)"/>
<path d="M0 0 C0.95003906 0.00644531 1.90007812 0.01289063 2.87890625 0.01953125 C5.4375 0.1875 5.4375 0.1875 8.4375 1.1875 C8.1075 3.1675 7.7775 5.1475 7.4375 7.1875 C3.86105152 8.4255014 1.10055234 7.93676071 -2.5625 7.1875 C-2.5625 7.8475 -2.5625 8.5075 -2.5625 9.1875 C-1.675625 9.435 -0.78875 9.6825 0.125 9.9375 C3.76660654 11.31169115 5.86998873 12.24241354 8.4375 15.1875 C9.09779669 18.30524873 9.06859377 21.06645447 8.4375 24.1875 C6.23918636 27.21965675 4.98786806 28.00404398 1.4375 29.1875 C-3.51587583 29.42717948 -7.04391403 29.44679298 -11.5625 27.1875 C-11.5625 24.8775 -11.5625 22.5675 -11.5625 20.1875 C-7.9325 20.5175 -4.3025 20.8475 -0.5625 21.1875 C-0.2325 20.5275 0.0975 19.8675 0.4375 19.1875 C-0.449375 18.94 -1.33625 18.6925 -2.25 18.4375 C-5.81740855 17.09130809 -7.9411556 15.95863551 -10.5625 13.1875 C-11.49245212 9.71567876 -11.90518246 7.34015918 -10.875 3.875 C-7.97397275 0.14510782 -4.4989855 -0.06733176 0 0 Z " fill="#062E21" transform="translate(244.5625,286.8125)"/>
<path d="M0 0 C5.61 0 11.22 0 17 0 C17 2.31 17 4.62 17 7 C14.36 7 11.72 7 9 7 C9 8.32 9 9.64 9 11 C11.64 11 14.28 11 17 11 C17 13.31 17 15.62 17 18 C14.36 18 11.72 18 9 18 C9 21.3 9 24.6 9 28 C6.03 28 3.06 28 0 28 C0 18.76 0 9.52 0 0 Z " fill="#062F20" transform="translate(319,287)"/>
<path d="M0 0 C5.61 0 11.22 0 17 0 C17 2.31 17 4.62 17 7 C14.03 7 11.06 7 8 7 C8 8.32 8 9.64 8 11 C10.64 11 13.28 11 16 11 C16 13.31 16 15.62 16 18 C13.36 18 10.72 18 8 18 C8 21.3 8 24.6 8 28 C5.36 28 2.72 28 0 28 C0 18.76 0 9.52 0 0 Z " fill="#082F22" transform="translate(198,287)"/>
<path d="M0 0 C7.26 0 14.52 0 22 0 C22 2.31 22 4.62 22 7 C19.69 7 17.38 7 15 7 C15 13.93 15 20.86 15 28 C12.36 28 9.72 28 7 28 C7 21.07 7 14.14 7 7 C4.69 7 2.38 7 0 7 C0 4.69 0 2.38 0 0 Z " fill="#053022" transform="translate(341,287)"/>
<path d="M0 0 C2.64 0 5.28 0 8 0 C8 9.24 8 18.48 8 28 C5.36 28 2.72 28 0 28 C0 18.76 0 9.52 0 0 Z " fill="#043122" transform="translate(303,287)"/>
<path d="M0 0 C2.64 0 5.28 0 8 0 C8 9.24 8 18.48 8 28 C7.67 28 7.34 28 7 28 C7 19.09 7 10.18 7 1 C5.35 1.66 3.7 2.32 2 3 C1.67 10.59 1.34 18.18 1 26 C1.66 26 2.32 26 3 26 C3 26.66 3 27.32 3 28 C2.01 28 1.02 28 0 28 C0 18.76 0 9.52 0 0 Z " fill="#102A21" transform="translate(303,287)"/>
<path d="M0 0 C7.26 0 14.52 0 22 0 C22 2.31 22 4.62 22 7 C19.69 7 17.38 7 15 7 C15 8.98 15 10.96 15 13 C14.34 12.01 13.68 11.02 13 10 C13.875 7.3125 13.875 7.3125 15 5 C15.99 5.33 16.98 5.66 18 6 C18 5.34 18 4.68 18 4 C18.99 4 19.98 4 21 4 C21 3.01 21 2.02 21 1 C20.2265625 1.08378906 19.453125 1.16757812 18.65625 1.25390625 C12.53598436 1.85229856 7.0628867 2.04934578 1 1 C1.34444881 3.47266765 1.34444881 3.47266765 2 6 C2.66 6.33 3.32 6.66 4 7 C2.68 7 1.36 7 0 7 C0 4.69 0 2.38 0 0 Z " fill="#132E25" transform="translate(341,287)"/>
<path d="M0 0 C4.62 0 9.24 0 14 0 C14 0.33 14 0.66 14 1 C10.37 1.33 6.74 1.66 3 2 C2.34 10.58 1.68 19.16 1 28 C0.67 28 0.34 28 0 28 C0 18.76 0 9.52 0 0 Z " fill="#0E261E" transform="translate(139,287)"/>
<path d="M0 0 C3.875 1.875 3.875 1.875 5 3 C5.36849841 6.03256065 5.42003996 8.97243925 5 12 C3 14.0625 3 14.0625 1 15 C1 13.68 1 12.36 1 11 C1.99 11 2.98 11 4 11 C3.79503906 10.45730469 3.59007812 9.91460937 3.37890625 9.35546875 C2.97478516 8.28232422 2.97478516 8.28232422 2.5625 7.1875 C2.16224609 6.12595703 2.16224609 6.12595703 1.75390625 5.04296875 C1.13774814 3.37327604 0.56280765 1.68842296 0 0 Z " fill="#08261C" transform="translate(248,299)"/>
<path d="" fill="#112222" transform="translate(0,0)"/>
</svg>
